<?xml version="1.0" encoding="utf-8"?>
<!-- Generator: Adobe Illustrator 22.0.1, SVG Export Plug-In . SVG Version: 6.00 Build 0)  -->
<svg version="1.1" id="Layer_1" xmlns="http://www.w3.org/2000/svg" xmlns:xlink="http://www.w3.org/1999/xlink" x="0px" y="0px"
	 viewBox="0 0 300 300" style="enable-background:new 0 0 300 300;" xml:space="preserve">
<style type="text/css">
	.st0{fill:#FF451F;}
	.st1{fill:#32B7F3;}
	.st2{fill:#FFE746;}
	.st3{fill:#00D183;}
</style>
<g>
	<g>
		<g>
			<path class="st0" d="M140.5,75.2c19.1-12,23.9-22.1,29.3-13.8c37.1,49.1,57.4,22.7,56.8,47.9c-0.6,7.2,1.8,19.7-4.8,25.1
				c-4.8,4.2-11.4,1.2-16.8-0.6c-29.3-7.8-43.1-20.3-64.6-39.5C130.4,83.6,132.1,80,140.5,75.2z"/>
		</g>
		<g>
			<path class="st0" d="M190.8,69.8c-6.6-9.6-4.2-22.1,5.4-28.1s22.1-4.2,28.1,5.4s4.2,22.1-5.4,28.1
				C209.9,81.8,197.4,79.4,190.8,69.8z"/>
		</g>
	</g>
	<g>
		<g>
			<path class="st1" d="M223.7,139.8c10.8,19.1,22.1,23.9,13.8,29.3c-49.1,37.1-22.7,57.4-47.9,56.2c-7.2-0.6-19.7,1.8-25.1-4.8
				c-4.2-4.8-1.2-11.4,0.6-16.8c7.8-29.3,20.3-43.1,39.5-64C214.7,129.6,219.5,132,223.7,139.8z"/>
		</g>
		<g>
			<path class="st1" d="M228.5,190.7c9.6-6.6,22.1-4.2,28.1,5.4c6.6,9.6,4.2,22.1-5.4,28.1c-9.6,6.6-22.1,4.2-28.1-5.4
				S220.1,197.2,228.5,190.7z"/>
		</g>
	</g>
	<g>
		<g>
			<path class="st2" d="M157.3,223.6c-19.1,10.8-23.9,22.1-29.3,13.8c-37.1-48.5-56.8-22.7-56.2-47.3c0.6-7.2-1.8-19.7,4.8-24.5
				c4.8-4.2,11.4-1.2,16.8,0.6c28.7,7.8,43.1,20.3,64,39.5C168,215.2,165.7,218.8,157.3,223.6z"/>
		</g>
		<g>
			<path class="st2" d="M107.6,228.9c6.6,9.6,4.2,22.1-5.4,28.1c-9.6,6.6-22.1,4.2-28.1-5.4s-4.2-22.1,5.4-28.1
				S101.6,219.4,107.6,228.9z"/>
		</g>
	</g>
	<g>
		<g>
			<path class="st3" d="M75.3,157.7c-10.8-19.1-22.1-23.9-13.8-29.3c49.1-37.1,22.7-57.4,47.9-56.8c7.2,0.6,19.7-1.8,25.1,4.8
				c4.2,4.8,1.2,11.4-0.6,16.8c-7.8,29.3-20.3,43.1-39.5,64C84.3,168.5,80.7,166.1,75.3,157.7z"/>
		</g>
		<g>
			<path class="st3" d="M70.5,107.5c-9.6,6.6-22.1,4.2-28.1-5.4C35.8,92.5,38.2,80,47.8,74c9.6-6,22.1-4.2,28.1,5.4
				S79.5,100.9,70.5,107.5z"/>
		</g>
	</g>
</g>
</svg>
