<?xml version="1.0" encoding="utf-8"?>
<!-- Generator: Adobe Illustrator 22.0.1, SVG Export Plug-In . SVG Version: 6.00 Build 0)  -->
<svg version="1.1" id="Layer_1" xmlns="http://www.w3.org/2000/svg" xmlns:xlink="http://www.w3.org/1999/xlink" x="0px" y="0px"
	 viewBox="0 0 300 300" style="enable-background:new 0 0 300 300;" xml:space="preserve">
<style type="text/css">
	.st0{fill:#FF451F;}
	.st1{fill:#32B7F3;}
	.st2{fill:#FFE746;}
	.st3{fill:#00D183;}
</style>
<g>
	<path class="st0" d="M189.6,99.5c-7.9,8.8-15.2,18.2-23.8,25.9c-6.9,6.2-17.5,5.1-24.7-1.9c-15.6-15.2-31-30.7-45.9-46.7
		c-8.1-8.6-6.9-20,1.5-27.6c8.2-7.5,18-6.8,26.5,1.4c11.9,11.5,21.9,24.9,34.4,35.8C167.1,94.8,176.1,103.8,189.6,99.5z"/>
	<path class="st1" d="M198.4,190c-8.6-7.8-17.7-14.9-24.2-24.4c-5.1-7.5-4.1-17.2,2.7-24.4c14.6-15.4,29.5-30.7,44.9-45.4
		c9.6-9.2,20.7-7.8,28.6,2.3c6.3,8.1,6.3,16.4-1,23.8c-9.5,9.6-19.5,18.7-29.1,28.2c-4.8,4.8-9.2,9.9-13.6,15.1
		C200.8,172.1,197.1,179.8,198.4,190z"/>
	<path class="st2" d="M109.6,200.8c7.7-9.7,15.5-18.8,25.1-25.9c7.4-5.4,17.1-4,24,2.8c15.5,15.3,30.8,30.8,45.9,46.6
		c7.8,8.1,6.8,18.7-1.5,26.9c-8,7.8-17.6,7.8-25.7-0.4c-12.5-12.6-24.8-25.5-37.3-38.2C131.9,204.3,122.9,197.8,109.6,200.8z"/>
	<path class="st3" d="M101.3,109.8c7.3,7.2,14.8,14.2,21.7,21.8c7.3,8,6.9,20.3-0.7,28.1c-14.7,15.1-29.4,30.2-44.4,45
		c-8.7,8.7-19.7,8.3-27.7-0.4c-7.4-8-6.7-18.2,1.6-26.8c11.9-12.5,25.2-23.6,36.8-36.6C96.6,132,103.3,123,101.3,109.8z"/>
	<path class="st0" d="M187.9,91.8c-12.6,0.1-22.8-9.7-22.8-22c0-12.5,9.9-22.7,22.2-22.8c12.3-0.2,22.6,9.9,22.8,22.2
		C210.2,81.6,200.3,91.7,187.9,91.8z"/>
	<path class="st2" d="M134.1,231.6c-0.1,12.2-9.9,22.3-21.7,22.3c-12.5,0-22.5-10-22.5-22.5c0-12.7,9.8-22.5,22.4-22.5
		C125,208.8,134.2,218.4,134.1,231.6z"/>
	<path class="st1" d="M229.9,166.2c11.4,0,21.8,10.5,21.9,22.4c0.2,11.7-10.7,22.7-22.5,22.6c-11.6-0.1-22-10.8-21.9-22.4
		C207.7,176.2,217.6,166.2,229.9,166.2z"/>
	<path class="st3" d="M70,134.1c-12.7,0-21.8-9.1-21.8-21.8c-0.1-12.3,9.6-22.4,21.5-22.6c12.4-0.2,22.3,10,22.2,22.6
		C91.8,125.1,82.7,134.1,70,134.1z"/>
</g>
</svg>
